<?xml version="1.0" encoding="UTF-8" standalone="no"?>
<!-- Created with Inkscape (http://www.inkscape.org/) -->

<svg
   width="200"
   height="200"
   viewBox="0 0 200 200"
   version="1.1"
   id="svg1"
   xml:space="preserve"
   xmlns="http://www.w3.org/2000/svg"
   xmlns:svg="http://www.w3.org/2000/svg"><defs
     id="defs1" /><g
     id="layer1"
     style="display:inline"><circle
       style="opacity:1;fill:#000000;fill-opacity:1;stroke:none;stroke-width:1.99998;stroke-linecap:round;stroke-linejoin:round;stroke-dasharray:none;stroke-opacity:1"
       id="path54"
       cx="10"
       cy="10"
       r="10" /><path
       style="opacity:1;fill:#ffffff;fill-opacity:1;stroke:none;stroke-width:2;stroke-linecap:round;stroke-linejoin:round;stroke-dasharray:none;stroke-opacity:1"
       d="m 8.92,1.99 q 3.29,0 4.68,1.13 1.39,1.1 1.39,2.74 0,2.06 -1.78,3.36 -0.67,0.5 -1.63,0.91 L 11.2,10.3 q -0.17,0.07 -0.34,1.01 -0.14,0.91 -0.14,1.32 -0.12,0.12 -0.7,0.29 -0.55,0.14 -0.94,0.14 -0.36,0 -0.55,-0.05 Q 8.27,12.58 8.27,11.14 8.27,9.7 8.39,9.29 12.18,8.38 12.18,6.22 12.18,4.35 8.72,4.35 7.5,4.35 6.94,4.59 6.8,4.35 6.8,3.58 6.8,2.81 7.02,2.28 7.67,1.99 8.92,1.99 Z m -0.7,15.5 q -0.46,-0.48 -0.46,-1.15 0,-0.67 0.46,-1.13 0.48,-0.48 1.15,-0.48 0.67,0 1.13,0.48 0.48,0.46 0.48,1.13 0,0.67 -0.48,1.15 -0.46,0.46 -1.13,0.46 -0.67,0 -1.15,-0.46 z"
       id="path55" /><path
       id="circle14"
       style="opacity:1;fill:#7bb5ff;fill-opacity:1;stroke:#000000;stroke-width:1;stroke-linecap:round;stroke-linejoin:round;stroke-dasharray:none;stroke-opacity:1;paint-order:stroke fill markers"
       d="M 30,1.2539062 C 27.479868,3.8850658 24.073484,6.0853211 23.789062,10 23.788759,13.430332 26.569668,16.211241 30,16.210938 33.430332,16.211241 36.211241,13.430332 36.210938,10 35.999554,6.1494588 32.53281,3.7856267 30,1.2539062 Z" /><circle
       style="opacity:1;fill:#ffffff;fill-opacity:1;stroke:#000000;stroke-width:0.5;stroke-linecap:round;stroke-linejoin:round;stroke-dasharray:none;stroke-opacity:1"
       id="circle15"
       cx="30"
       cy="10"
       r="4.7519341" /></g><g
     id="g16"
     transform="translate(0,-20)"><circle
       style="display:inline;opacity:1;fill:#000000;fill-opacity:1;stroke:none;stroke-width:2;stroke-linecap:round;stroke-linejoin:round;stroke-dasharray:none;stroke-opacity:1"
       id="circle1"
       cx="10"
       cy="50"
       r="10" /><circle
       style="display:inline;opacity:1;fill:#ff2c2c;fill-opacity:1;stroke:none;stroke-width:2;stroke-linecap:round;stroke-linejoin:round;stroke-dasharray:none;stroke-opacity:1"
       id="circle16"
       cx="10"
       cy="50"
       r="8.759305" /></g><g
     id="g18"
     transform="translate(20,-20)"><circle
       style="display:inline;opacity:1;fill:#000000;fill-opacity:1;stroke:none;stroke-width:2;stroke-linecap:round;stroke-linejoin:round;stroke-dasharray:none;stroke-opacity:1"
       id="circle17"
       cx="10"
       cy="50"
       r="10" /><circle
       style="display:inline;opacity:1;fill:#2c7aff;fill-opacity:1;stroke:none;stroke-width:2;stroke-linecap:round;stroke-linejoin:round;stroke-dasharray:none;stroke-opacity:1"
       id="circle18"
       cx="10"
       cy="50"
       r="8.759305" /></g><g
     id="g20"
     transform="translate(40,-20)"><circle
       style="display:inline;opacity:1;fill:#000000;fill-opacity:1;stroke:none;stroke-width:2;stroke-linecap:round;stroke-linejoin:round;stroke-dasharray:none;stroke-opacity:1"
       id="circle19"
       cx="10"
       cy="50"
       r="10" /><circle
       style="display:inline;opacity:1;fill:#80ff2c;fill-opacity:1;stroke:none;stroke-width:2;stroke-linecap:round;stroke-linejoin:round;stroke-dasharray:none;stroke-opacity:1"
       id="circle20"
       cx="10"
       cy="50"
       r="8.759305" /></g></svg>
